<?xml version="1.0" encoding="UTF-8"?>
<!-- Generated by jsxcad -->
<!DOCTYPE svg PUBLIC "-//W3C//DTD SVG 1.1 Tiny//EN" "http://www.w3.org/Graphics/SVG/1.1/DTD/svg11-tiny.dtd">
<svg baseProfile="tiny" height="10.000000000000007mm" width="10.000000000000007mm" viewBox="0 0 10.000000000000007 10.000000000000007" version="1.1" stroke="black" stroke-width=".1" fill="none" xmlns="http://www.w3.org/2000/svg">
<path fill="#000000" stroke="#000000" d="M2.5 9.33013 L1.46447 8.53553 L0.66987 7.5 L0.17037 6.2941 L0 5 L0.17037 3.7059 L0.66987 2.5 L1.46447 1.46447 L2.5 0.66987 L3.7059 0.17037 L5 0 L6.2941 0.17037 L7.5 0.66987 L8.53553 1.46447 L9.33013 2.5 L9.82963 3.7059 L10 5 L9.82963 6.2941 L9.33013 7.5 L8.53553 8.53553 L7.5 9.33013 L6.2941 9.82963 L5 10 L3.7059 9.82963 z"/>
<path fill="#000000" stroke="#000000" d="M5 10.000000000000004 L5 10.000000000000004 L6.294099782941844 9.829628351281363 L6.294099782941844 9.829628351281363 z"/>
<path fill="#000000" stroke="#000000" d="M6.294098935236896 9.829627429432488 L6.294098935236896 9.829627429432488 L7.499999023919983 9.330127643532567 L7.499999023919983 9.330127643532567 z"/>
<path fill="#000000" stroke="#000000" d="M9.829628351281363 6.294099782941844 L9.829628351281363 6.294099782941844 L10.000000000000004 5 L10.000000000000004 5 z"/>
<path fill="#000000" stroke="#000000" d="M3.7059002170581556 9.829628351281363 L3.7059002170581556 9.829628351281363 L4.999999999999999 10.000000000000002 L4.999999999999999 10.000000000000002 z"/>
<path fill="#000000" stroke="#000000" d="M9.330127643532567 7.499999023919983 L9.330127643532567 7.499999023919983 L9.829627429432488 6.294098935236896 L9.829627429432488 6.294098935236896 z"/>
<path fill="#000000" stroke="#000000" d="M8.535534343846582 8.535533333151644 L8.535534343846582 8.535533333151644 L9.330128262343733 7.499998666649078 L9.330128262343733 7.499998666649078 z"/>
<path fill="#000000" stroke="#000000" d="M9.829628351281363 3.7059002170581556 L9.829628351281363 3.7059002170581556 L10.000000000000002 4.999999999999999 L10.000000000000002 4.999999999999999 z"/>
<path fill="#000000" stroke="#000000" d="M8.53553333315164 1.4644656561534222 L8.53553333315164 1.4644656561534222 L7.499998666649074 0.669871737656271 L7.499998666649074 0.669871737656271 z"/>
<path fill="#000000" stroke="#000000" d="M9.33012826234373 2.5000013333509243 L9.33012826234373 2.5000013333509243 L8.535534343846578 1.4644666668483575 L8.535534343846578 1.4644666668483575 z"/>
<path fill="#000000" stroke="#000000" d="M9.330127643532565 2.500000976080017 L9.330127643532565 2.500000976080017 L9.829627429432485 3.705901064763105 L9.829627429432485 3.705901064763105 z"/>
<path fill="#000000" stroke="#000000" d="M8.535533333151644 8.535534343846582 L8.535533333151644 8.535534343846582 L7.499998666649078 9.330128262343733 L7.499998666649078 9.330128262343733 z"/>
<path fill="#000000" stroke="#000000" d="M4.999999999999999 2.9928099310104514e-15 L4.999999999999999 2.9928099310104514e-15 L6.294099782941843 0.1703716487186429 L6.294099782941843 0.1703716487186429 z"/>
<path fill="#000000" stroke="#000000" d="M6.294098935236893 0.17037257056751784 L6.294098935236893 0.17037257056751784 L7.499999023919981 0.6698723564674377 L7.499999023919981 0.6698723564674377 z"/>
<path fill="#000000" stroke="#000000" d="M2.500000976080019 0.6698723564674403 L2.500000976080019 0.6698723564674403 L3.7059010647631077 0.1703725705675202 L3.7059010647631077 0.1703725705675202 z"/>
<path fill="#000000" stroke="#000000" d="M3.705900217058157 0.17037164871864377 L3.705900217058157 0.17037164871864377 L5 3.991561391883951e-15 L5 3.991561391883951e-15 z"/>
<path fill="#000000" stroke="#000000" d="M1.4644666668483612 1.464465656153426 L1.4644666668483612 1.464465656153426 L2.5000013333509274 0.6698717376562744 L2.5000013333509274 0.6698717376562744 z"/>
<path fill="#000000" stroke="#000000" d="M0.1703725705675202 3.7059010647631077 L0.1703725705675202 3.7059010647631077 L0.6698723564674403 2.500000976080019 L0.6698723564674403 2.500000976080019 z"/>
<path fill="#000000" stroke="#000000" d="M0.6698717376562744 2.5000013333509274 L0.6698717376562744 2.5000013333509274 L1.464465656153426 1.4644666668483612 L1.464465656153426 1.4644666668483612 z"/>
<path fill="#000000" stroke="#000000" d="M0.6698723564674377 7.499999023919981 L0.6698723564674377 7.499999023919981 L0.17037257056751784 6.294098935236893 L0.17037257056751784 6.294098935236893 z"/>
<path fill="#000000" stroke="#000000" d="M3.1116707706492134e-15 4.999999999999999 L3.1116707706492134e-15 4.999999999999999 L0.1703716487186429 6.294099782941843 L0.1703716487186429 6.294099782941843 z"/>
<path fill="#000000" stroke="#000000" d="M3.8727005522451895e-15 5 L3.8727005522451895e-15 5 L0.17037164871864377 3.705900217058157 L0.17037164871864377 3.705900217058157 z"/>
<path fill="#000000" stroke="#000000" d="M1.4644656561534222 8.53553333315164 L1.4644656561534222 8.53553333315164 L0.669871737656271 7.499998666649074 L0.669871737656271 7.499998666649074 z"/>
<path fill="#000000" stroke="#000000" d="M2.500000976080017 9.330127643532565 L2.500000976080017 9.330127643532565 L3.705901064763105 9.829627429432485 L3.705901064763105 9.829627429432485 z"/>
<path fill="#000000" stroke="#000000" d="M2.5000013333509243 9.33012826234373 L2.5000013333509243 9.33012826234373 L1.4644666668483575 8.535534343846578 L1.4644666668483575 8.535534343846578 z"/>
<path fill="#000000" stroke="#000000" d="M1.46447 8.53553 L2.5 9.33013 L3.7059 9.82963 L5 10 L6.2941 9.82963 L7.5 9.33013 L8.53553 8.53553 L9.33013 7.5 L9.82963 6.2941 L10 5 L9.82963 3.7059 L9.33013 2.5 L8.53553 1.46447 L7.5 0.66987 L6.2941 0.17037 L5 0 L3.7059 0.17037 L2.5 0.66987 L1.46447 1.46447 L0.66987 2.5 L0.17037 3.7059 L0 5 L0.17037 6.2941 L0.66987 7.5 z"/>
</svg>